<svg xmlns="http://www.w3.org/2000/svg" viewBox="0 0 24 24" fill="currentColor" aria-hidden="true">
  <path d="m19.14 12.94.04-.94-.04-.94 2.03-1.58a.5.5 0 0 0 .12-.64l-1.92-3.32a.5.5 0 0 0-.6-.22l-2.39.96a7 7 0 0 0-1.63-.94l-.36-2.54a.5.5 0 0 0-.49-.42h-3.84a.5.5 0 0 0-.49.42L9.21 5.3a7 7 0 0 0-1.63.94l-2.39-.96a.5.5 0 0 0-.6.22L2.67 8.82a.5.5 0 0 0 .12.64l2.03 1.58-.04.96.04.94-2.03 1.58a.5.5 0 0 0-.12.64l1.92 3.32a.5.5 0 0 0 .6.22l2.39-.96c.5.39 1.04.7 1.63.94l.36 2.54a.5.5 0 0 0 .49.42h3.84a.5.5 0 0 0 .49-.42l.36-2.54c.59-.24 1.13-.55 1.63-.94l2.39.96a.5.5 0 0 0 .6-.22l1.92-3.32a.5.5 0 0 0-.12-.64zM12 15.5A3.5 3.5 0 1 1 15.5 12 3.5 3.5 0 0 1 12 15.5"/>
</svg>
